<?xml version="1.0" standalone="no"?>
<!DOCTYPE svg PUBLIC "-//W3C//DTD SVG 1.1//EN" "http://www.w3.org/Graphics/SVG/1.1/DTD/svg11.dtd" >
<svg xmlns="http://www.w3.org/2000/svg" xmlns:xlink="http://www.w3.org/1999/xlink" version="1.1">
<metadata>
Created by FontForge 20201107 at Mon Jan 21 22:20:29 2013
 By Thomas
FREEWARE
</metadata>
<defs>
<font id="FluxArchitect" horiz-adv-x="1830" >
  <font-face 
    font-family="Flux Architect"
    font-weight="400"
    font-stretch="normal"
    units-per-em="2048"
    panose-1="2 0 0 0 0 0 0 0 0 0"
    ascent="1638"
    descent="-410"
    x-height="1338"
    cap-height="1478"
    bbox="-20 -357 1834 2058"
    underline-thickness="150"
    underline-position="-292"
    unicode-range="U+0020-007A"
  />
<missing-glyph horiz-adv-x="1536" 
d="M256 0v1280h1024v-1280h-1024zM288 32h960v1216h-960v-1216z" />
    <glyph glyph-name=".notdef" horiz-adv-x="1536" 
d="M256 0v1280h1024v-1280h-1024zM288 32h960v1216h-960v-1216z" />
    <glyph glyph-name="NULL" horiz-adv-x="0" 
 />
    <glyph glyph-name="nonmarkingreturn" horiz-adv-x="900" 
 />
    <glyph glyph-name="space" unicode=" " horiz-adv-x="900" 
 />
    <glyph glyph-name="space" unicode="&#xa0;" horiz-adv-x="900" 
 />
    <glyph glyph-name="exclam" unicode="!" horiz-adv-x="550" 
d="M274 1546q86 0 134 -58q-34 -94 -91 -590l-39 -428q-33 -33 -96 -33q-87 0 -129 57q26 0 101 677l33 341q24 25 87 34zM120 245q94 0 120 -130q0 -100 -120 -115q-120 26 -120 110v5q15 130 120 130z" />
    <glyph glyph-name="quotedbl" unicode="&#x22;" horiz-adv-x="930" 
d="M264 1870q59 0 72 -82v-14q0 -147 -149 -446q-25 -24 -62 -24q-125 23 -125 120q0 12 86 124q92 177 92 269q19 53 86 53zM619 1774q69 0 82 -86v-10q0 -152 -149 -446q-21 -24 -67 -24q-120 26 -120 110q0 34 72 106q105 200 105 297q29 53 77 53z" />
    <glyph glyph-name="numbersign" unicode="#" horiz-adv-x="1300" 
d="M326 1511q125 -20 125 -62q-29 -116 -29 -264h5l250 4l5 154v96q0 62 115 62q77 0 115 -57q-29 -100 -29 -245h58q103 0 149 -62v-15q-23 -90 -178 -101h-34q-24 0 -24 -273h82q102 0 139 -72q-30 -106 -221 -106h-4l-5 -81v-178q0 -65 -106 -77q-97 0 -125 67
q29 113 29 255h-5l-244 -10q-10 -24 -10 -86v-154q0 -62 -110 -62q-96 0 -120 62q19 38 28 221h-4l-92 -5q-86 23 -86 96v15q0 71 82 100l100 -4h15l9 172v77l-100 -5q-71 0 -92 101q0 78 87 111l24 -5h91l5 105v149q0 65 105 77zM403 988l-5 -154v-43l-4 -58l259 5
q14 19 14 187v82q-264 -9 -264 -19z" />
    <glyph glyph-name="dollar" unicode="$" horiz-adv-x="1350" 
d="M566 1901q120 -18 120 -91l-19 -154q212 -106 245 -226v-19q-33 -134 -120 -134q-62 0 -77 86l10 48q-33 24 -63 24h-4l-15 -297h5l182 19q296 0 336 -341q0 -218 -244 -470q-190 -135 -303 -135v-125q0 -71 -96 -86h-9q-99 0 -125 86l19 130q-246 73 -360 254
q-48 91 -48 120q17 87 77 87q47 0 129 -111q116 -85 212 -110l4 5v5l10 374l-134 -14h-10q-227 0 -264 307q0 302 432 523v154q0 76 101 91h9zM197 1157v-43q0 -39 62 -39q175 12 187 34v5l5 307h-5q-171 -81 -235 -211zM634 869l-10 -437h5q127 0 336 264q29 61 29 96
q0 56 -77 110h-48q-216 -10 -235 -33z" />
    <glyph glyph-name="percent" unicode="%" horiz-adv-x="1650" 
d="M1109 1566q120 -26 120 -116q0 -13 -130 -192q-254 -390 -278 -441h5q156 72 273 72q246 0 341 -269l14 -91q0 -243 -350 -456q-160 -67 -259 -67q-161 0 -279 168q-43 96 -43 139h-9q-13 -8 -149 -245l-53 -14q-120 32 -120 115q0 16 144 211l302 475h-9
q-156 -110 -317 -110l-5 -5q-164 0 -264 168q-43 102 -43 163q0 221 250 394q156 91 292 91q202 0 303 -216q19 -64 19 -96h5q52 69 187 307q30 15 53 15zM173 1026q20 -116 153 -116h10q123 0 312 149q43 53 43 91v44q0 74 -158 100h-24q-134 0 -288 -144q-48 -56 -48 -124
zM706 354v-48q0 -82 129 -111h58q138 6 336 173q33 54 33 82v52q0 69 -148 106h-58q-141 0 -312 -163q-38 -62 -38 -91z" />
    <glyph glyph-name="ampersand" unicode="&#x26;" horiz-adv-x="1366" 
d="M667 2058q115 -19 115 -91l-14 -173l221 14q144 0 144 -52q11 0 29 -96q-16 -111 -96 -111l-77 15h-19q-109 0 -212 -34l-14 -437h14l5 5q115 -27 115 -110q0 -115 -134 -130v-5l-5 -321h5q43 0 254 124h20q81 0 91 -105q0 -146 -192 -202q-31 -19 -178 -53v-235l5 -5
q0 -93 -120 -105q-115 23 -115 91q19 129 19 202v48l-110 38q-212 101 -212 274q0 99 101 264q-169 40 -245 134q-53 88 -62 178q44 247 130 331q180 173 326 201l101 39l-5 206q0 88 115 101zM192 1253v-39q0 -88 139 -120q43 -9 115 -9h68l33 5l5 96v336h-5
q-278 -89 -278 -135q-77 -78 -77 -134zM394 653v-15q18 -76 139 -76h5l9 288q-115 -36 -115 -82q-38 -57 -38 -115z" />
    <glyph glyph-name="quotesingle" unicode="'" horiz-adv-x="500" 
d="M264 1877q59 0 72 -82v-14q0 -151 -154 -452q-31 -14 -62 -14q-120 25 -120 110v5q0 16 82 120q68 114 105 293q20 34 77 34z" />
    <glyph glyph-name="parenleft" unicode="(" horiz-adv-x="800" 
d="M523 1852q135 -16 135 -109v-15q0 -104 -168 -208q-167 -118 -240 -393q-24 -94 -24 -198v-35q0 -326 297 -561q154 -128 154 -219l5 -30q0 -82 -87 -84q-142 0 -432 397q-163 295 -163 527q0 349 245 675q232 253 259 253h19z" />
    <glyph glyph-name="parenright" unicode=")" horiz-adv-x="682" 
d="M158 1848h15q46 0 321 -327q188 -309 188 -599q0 -337 -293 -699q-202 -223 -312 -223q-66 0 -77 84q0 121 120 208q336 283 336 560v85q0 312 -216 540q-216 146 -216 238v14q0 78 77 110z" />
    <glyph glyph-name="asterisk" unicode="*" horiz-adv-x="850" 
d="M379 1253q101 -21 101 -67l-19 -158h5q115 53 144 53q74 0 91 -68q0 -62 -139 -134q1 -9 96 -58q43 -44 43 -81q0 -48 -101 -63l-158 63q-14 -226 -63 -226q-15 -19 -48 -19q-51 0 -72 101l5 53v76q-16 0 -158 -86h-10q-96 40 -96 134q0 44 154 101v5l-144 72l-10 43
q27 125 106 125q103 -68 168 -91l9 9v5l-5 149q0 41 101 62z" />
    <glyph glyph-name="plus" unicode="+" horiz-adv-x="1196" 
d="M485 1340q105 -22 105 -86q-24 -191 -24 -288h5l255 9q73 0 124 -62v-10q0 -115 -292 -115l-101 -5l-5 -4v-5q-11 -336 -43 -336q-28 -53 -82 -53q-62 35 -62 115l-5 5l10 264q-98 0 -288 -24q-70 0 -82 106q11 105 77 105l129 -5l173 5l5 178l-5 125q0 58 106 81z" />
    <glyph glyph-name="comma" unicode="," horiz-adv-x="569" 
d="M264 204q59 0 72 -82v-14q0 -150 -154 -451q-31 -14 -62 -14q-120 24 -120 110v5q0 16 82 120q68 114 105 292q20 34 77 34z" />
    <glyph glyph-name="hyphen" unicode="-" horiz-adv-x="1100" 
d="M806 986l5 5h5q85 0 134 -63v-14q0 -93 -216 -101l-662 -43q-72 15 -72 101q17 101 72 101l115 -5z" />
    <glyph glyph-name="hyphen" unicode="&#xad;" horiz-adv-x="1100" 
d="M806 986l5 5h5q85 0 134 -63v-14q0 -93 -216 -101l-662 -43q-72 15 -72 101q17 101 72 101l115 -5z" />
    <glyph glyph-name="period" unicode="." horiz-adv-x="569" 
d="M106 240q129 -19 129 -130q-23 -110 -105 -110q-130 15 -130 120q23 120 106 120z" />
    <glyph glyph-name="slash" unicode="/" horiz-adv-x="800" 
d="M528 1774q122 -37 118 -83q-402 -1455 -421 -1665v-5q-6 -64 -93 -70q-122 35 -118 83q127 454 414 1593q12 134 41 131q0 8 59 16z" />
    <glyph glyph-name="zero" unicode="0" horiz-adv-x="1950" 
d="M1133 1453q390 0 571 -374q7 -43 19 -43l29 5q82 -25 82 -82v-5q0 -62 -72 -91q-29 0 -29 -91q-16 -114 -139 -298q-299 -321 -533 -413q-273 -86 -408 -86q-303 0 -480 293q-38 94 -48 96l-53 -15q-72 23 -72 125v5q0 49 101 72v24q0 317 355 629q231 179 571 240z
M283 599h10q315 82 1238 379v5q-149 211 -432 211q-304 0 -653 -283q-163 -168 -163 -312zM322 426v-9q124 -183 350 -183h43q278 0 696 307q135 135 135 255z" />
    <glyph glyph-name="one" unicode="1" horiz-adv-x="700" 
d="M173 1444q91 -20 91 -81l-5 -82l10 -1041l9 -173q-23 -77 -86 -77h-10q-81 8 -81 82l-10 1046q-91 40 -91 106q82 220 158 220h15z" />
    <glyph glyph-name="two" unicode="2" horiz-adv-x="1080" 
d="M470 1453q233 0 360 -192q29 -47 44 -144q0 -181 -183 -466l-336 -379v-9l355 33v5q73 0 92 -101q-15 -153 -116 -153q-161 -29 -604 -82q-82 0 -82 96q13 101 528 662q168 223 168 394v14q-28 116 -115 116h-48q-183 0 -394 -188l-33 -9q-73 0 -96 120v5q0 101 321 254z
" />
    <glyph glyph-name="three" unicode="3" horiz-adv-x="1250" 
d="M499 1395q199 0 336 -134q67 -74 67 -164q0 -99 -91 -249v-5q148 -32 221 -115q62 -93 62 -173v-14q0 -110 -86 -260q-83 -144 -341 -235q-262 -91 -499 -91q-154 0 -154 86q-9 0 -9 53h-5q16 106 91 106l91 -15q217 0 639 183q96 105 96 158v39q0 90 -163 120h-106
q-201 0 -254 -53h-24q-101 19 -101 101q19 115 96 115l5 5l33 -5q303 75 303 168q19 35 19 62v34q0 53 -130 72h-48q-181 0 -384 -135l-24 -4q-86 0 -86 96v9q0 130 163 178q170 67 283 67z" />
    <glyph glyph-name="four" unicode="4" horiz-adv-x="1430" 
d="M931 1497h5q76 0 86 -91h5l-5 -5v-5l10 -830h125q105 -11 105 -96q0 -139 -86 -139h-139v-111l5 -163q0 -50 -87 -67h-9q-77 0 -87 106v235h-720q-77 0 -139 139v14q13 87 82 87l57 -5q705 704 706 715v10l-5 125q0 62 91 81zM389 576v-10h465v235l-4 226h-10z" />
    <glyph glyph-name="five" unicode="5" horiz-adv-x="1400" 
d="M182 1516q87 -15 87 -82h509q76 0 105 -120l5 -38q0 -84 -120 -91h-494l4 -274h5q473 48 591 48h9q221 0 351 -206q19 -52 19 -96v-19q0 -225 -331 -466q-322 -187 -485 -187h-19l-5 -5l-5 5h-19q-257 0 -370 264q34 86 106 86q49 0 96 -77q54 -48 225 -48h5
q223 0 557 312q58 69 58 111q0 67 -77 81h-19q-333 0 -687 -62v-43q-18 -87 -86 -87q-72 0 -96 111q-44 0 -87 177q0 56 92 87l-5 57v250l-91 106l-10 38q0 68 96 91q21 77 86 77z" />
    <glyph glyph-name="six" unicode="6" horiz-adv-x="1550" 
d="M816 1410q82 -14 82 -81h4q-51 -154 -76 -154q-340 -190 -437 -264q-183 -191 -183 -384v-43l5 -14h10q385 417 787 417q187 0 355 -158q43 -51 43 -115v-10q0 -159 -350 -456q-261 -168 -456 -168q-199 0 -398 154h-5q-78 -82 -111 -82q-86 21 -86 82q0 108 77 172v15
q-43 97 -43 163v58q0 250 244 518q227 250 428 322q83 28 110 28zM355 297q131 -63 211 -63q269 0 552 207q51 80 116 144v29q-35 51 -192 62q-219 0 -528 -216q-159 -140 -159 -163z" />
    <glyph glyph-name="seven" unicode="7" horiz-adv-x="1100" 
d="M768 1483q76 0 86 -92l77 -153v-15q-19 -81 -72 -81l5 -903l10 -177q0 -66 -96 -77q-96 18 -96 82l9 100l-9 975l-432 9l-144 -4q-73 0 -106 148v10q0 91 115 91h567q13 87 86 87z" />
    <glyph glyph-name="eight" unicode="8" horiz-adv-x="1500" 
d="M696 1425q248 0 389 -168q29 -91 29 -125q0 -98 -106 -216l5 -5q165 -40 245 -134q62 -93 62 -163v-34q0 -225 -379 -461q-279 -139 -495 -139q-315 0 -427 245l-19 96q0 230 322 451v5q-202 108 -202 254q0 154 197 283q193 111 379 111zM298 1036v-5q0 -86 192 -110h72
q183 0 331 125q43 45 43 81v19q0 62 -173 72h-5q-295 0 -446 -139zM211 364v-14q0 -116 135 -116h91q200 0 633 240q77 50 77 125v5q0 96 -163 134h-53q-229 -14 -509 -172q-211 -137 -211 -202z" />
    <glyph glyph-name="nine" unicode="9" horiz-adv-x="1400" 
d="M542 1429q382 0 586 -369q115 -414 115 -663v-57q0 -161 -134 -293q-82 -67 -178 -67h-14l-5 -5l-5 5h-14q-152 0 -523 101q-48 39 -48 120q10 124 91 124q239 -91 413 -91h72q134 0 172 139v5q0 157 -52 413l-116 -62q-186 -77 -374 -77q-377 0 -504 278l-24 111
q0 174 197 297q171 91 345 91zM192 1026v-14q0 -96 173 -135l57 -4q280 0 514 129l14 15q-125 153 -312 153h-9q-437 0 -437 -144z" />
    <glyph glyph-name="colon" unicode=":" horiz-adv-x="569" 
d="M139 1202q91 0 130 -106v-29q0 -92 -115 -110q-120 25 -120 110l-5 5q29 130 110 130zM115 635q79 0 120 -105l5 -19q-23 -120 -120 -120q-120 24 -120 110v5q17 129 115 129z" />
    <glyph glyph-name="semicolon" unicode=";" horiz-adv-x="550" 
d="M264 1210q81 0 120 -110v-24q0 -89 -115 -110q-125 18 -125 124q22 120 120 120zM259 783q62 0 82 -91q0 -140 -154 -451q-20 -24 -67 -24q-120 26 -120 110v5q0 19 82 120q96 183 96 278q29 53 81 53z" />
    <glyph glyph-name="semicolon" unicode="&#x37e;" horiz-adv-x="550" 
d="M264 1210q81 0 120 -110v-24q0 -89 -115 -110q-125 18 -125 124q22 120 120 120zM259 783q62 0 82 -91q0 -140 -154 -451q-20 -24 -67 -24q-120 26 -120 110v5q0 19 82 120q96 183 96 278q29 53 81 53z" />
    <glyph glyph-name="equal" unicode="=" horiz-adv-x="1080" 
d="M806 1273l20 5q78 0 129 -63v-19q-34 -96 -144 -96q-555 -33 -729 -53q-57 0 -82 101q24 111 77 111l110 -5zM874 851q120 -20 120 -77q-23 -106 -221 -106l-658 -43q-58 0 -77 106q22 100 82 100l120 -4z" />
    <glyph glyph-name="question" unicode="?" horiz-adv-x="1300" 
d="M686 1519q339 -17 408 -173l10 -57v-20q0 -264 -451 -460q-302 -90 -312 -111v-5q0 -129 -43 -158q-35 -19 -77 -19q-120 0 -120 120q0 128 105 225l375 106q317 142 317 254q-18 72 -135 72h-96q-235 0 -576 -177q-69 0 -91 134q10 106 62 106q415 163 624 163zM192 300
q101 0 125 -130q-24 -115 -106 -115h-5q-134 18 -134 120q23 125 120 125z" />
    <glyph glyph-name="at" unicode="@" horiz-adv-x="1550" 
d="M758 1537q411 0 562 -451l24 -187q0 -311 -211 -552q-54 -19 -87 -19q-96 0 -144 235h-4q-183 -144 -346 -144q-147 0 -240 158q-24 71 -24 115v15q0 205 269 350q104 43 187 43h10q57 0 134 -33l72 9q96 0 96 -81l29 -331h14q58 121 58 230v48q0 260 -259 336l-92 10
h-33q-288 0 -485 -279q-91 -145 -91 -321q0 -238 182 -312q106 -60 106 -140q0 -74 -130 -86q-237 0 -345 485l-10 91q0 325 298 638q214 173 460 173zM456 716v-19q0 -64 91 -77h58q259 79 259 183v24q0 61 -125 77h-9q-140 0 -260 -140q-14 -24 -14 -48z" />
    <glyph glyph-name="A" unicode="A" horiz-adv-x="1720" 
d="M955 1543q80 0 125 -140v-14l-14 -77q297 -725 331 -782q139 -25 139 -130q0 -39 -48 -105q34 -137 86 -221v-15q-20 -100 -100 -100q-100 0 -116 134l-72 168l-249 5h-240l-456 -10q-24 -2 -154 -216q-42 -43 -81 -43q-82 0 -101 106h-5q0 25 110 177l5 5v5
q-25 35 -33 86q35 144 144 144h38q547 804 547 850l-5 24q0 80 116 139zM504 530v-10h643l24 5v10l-249 614h-10q-58 -71 -408 -619z" />
    <glyph glyph-name="B" unicode="B" 
d="M911 1480q425 0 523 -259l10 -67q0 -77 -86 -231v-5q0 -23 110 -67q163 -84 163 -249l5 -44q0 -212 -355 -451q-125 -86 -903 -86h-134v-5q0 -100 -77 -100q-61 0 -81 95q-36 0 -48 101v24q0 53 48 144v5l-5 393h-15l-4 -4q-62 21 -62 115q0 107 76 168v5l-5 211
q-91 83 -91 144q0 67 101 77q21 38 72 38l57 -29q397 58 701 77zM225 1120v-154h163q762 0 826 106q26 0 43 77q0 72 -245 72h-96q-329 0 -672 -67q-19 -14 -19 -34zM230 688l4 -216v-110l5 -82h5q816 0 898 48q331 109 331 240q0 206 -442 206q-706 -54 -801 -86z" />
    <glyph glyph-name="C" unicode="C" horiz-adv-x="1730" 
d="M898 1469q182 0 504 -120q33 -32 33 -87q0 -110 -101 -134q-247 62 -432 62h-4q-370 0 -624 -307q-82 -127 -82 -278q0 -351 403 -351h29q385 0 744 245q48 48 96 48q110 -15 110 -101v-14q0 -116 -148 -187q-164 -119 -428 -197q-218 -48 -331 -48q-502 0 -619 384
q-48 183 -48 274q0 319 374 619q323 192 524 192z" />
    <glyph glyph-name="D" unicode="D" 
d="M192 1522q48 0 91 -77h5q454 72 586 72q292 0 580 -187q131 -92 188 -327l19 -149q0 -438 -667 -729q-193 -82 -677 -82h-43q-40 -43 -77 -43t-91 48q-63 35 -63 120q0 67 63 134l-5 879q-96 101 -96 139v10h-5q0 69 96 86q21 106 96 106zM278 710l5 -393h72
q504 0 629 86q372 136 470 351q20 47 20 81v67q0 236 -260 303q-173 43 -340 43q-277 0 -596 -91v-447z" />
    <glyph glyph-name="E" unicode="E" horiz-adv-x="1420" 
d="M182 1533q19 0 87 -29h451l437 -5q64 0 110 -144l5 -33q-25 -87 -130 -87l-878 -14l5 -130v-153h744q113 0 144 -96l9 -58q0 -105 -124 -105h-768v-394h4l888 -5q61 0 106 -153q0 -74 -110 -96l-869 -15q-31 -91 -101 -91q-78 0 -106 130q-81 123 -81 144q0 64 96 91
l-5 33v375q-96 87 -96 153q0 69 91 87v293q-78 79 -91 177q0 77 106 96q57 29 76 29z" />
    <glyph glyph-name="F" unicode="F" horiz-adv-x="851"
d="M192 1512q65 0 101 -86l677 9q75 0 86 -91h5l-5 -24v-62q0 -116 -134 -116l-591 -9l-53 -5v-264h672q120 0 120 -91h5q0 -173 -101 -173l-643 -14l-48 -5v-149l-5 -307l5 -58q0 -53 -81 -67h-10q-72 0 -82 86l-4 490q-101 0 -101 96q0 44 101 187l-5 187v53q0 28 -67 48
q-34 32 -34 67v10q0 30 62 115q0 121 111 173h19z" />
    <glyph glyph-name="G" unicode="G" horiz-adv-x="1820" 
d="M1142 1464q120 0 120 -168q0 -91 -182 -91q-312 -43 -446 -96q-178 -77 -408 -389q-34 -76 -34 -154q0 -205 216 -264q132 -33 293 -33q299 0 619 129l-5 216h-5q-42 0 -379 -62q-61 0 -96 82q77 216 183 216q288 32 288 43q0 78 91 86q52 0 86 -67h34q115 0 115 -130
v-38q0 -76 -144 -106l5 -105v-77h5l62 5q82 0 82 -135v-28q0 -99 -96 -125q-39 -9 -39 -19v-58q-5 -96 -81 -96h-10q-77 0 -86 106l-365 -82q-115 -14 -197 -14h-101q-412 0 -513 177q-154 216 -154 485q0 367 547 686q255 106 595 106z" />
    <glyph glyph-name="H" unicode="H" horiz-adv-x="1540" 
d="M1210 1486q91 -16 91 -81l-5 -82l5 -504v-129q72 -47 72 -82q-15 -144 -72 -144v-144l5 -278q0 -69 -92 -81q-86 0 -86 95l5 77l-5 139v163l-845 -5l-14 -4v-293l5 -5q-14 -96 -87 -96h-9q-82 9 -82 77h-5l5 33v68l-5 216q-91 16 -91 91q0 100 91 168l-5 216v101l-4 379
q13 67 96 67q64 0 86 -62l-5 -63l5 -629h5l547 -4h307l5 345v192l-5 187q0 59 87 72z" />
    <glyph glyph-name="I" unicode="I" horiz-adv-x="430" 
d="M86 1478h5q96 -16 96 -86l-14 -139v-941l5 -235q0 -61 -87 -77q-86 11 -86 82h-5l5 81v1027l-5 221q26 67 86 67z" />
    <glyph glyph-name="J" unicode="J" horiz-adv-x="1100" 
d="M826 1531q60 0 86 -77l-5 -28l19 -668q0 -363 -91 -436q-87 -118 -211 -202q-169 -106 -322 -120q-242 0 -297 408l-5 58q24 76 86 76q87 0 101 -172q36 -106 120 -106q284 0 437 331l5 72v48q0 322 -19 749q22 67 96 67z" />
    <glyph glyph-name="K" unicode="K" 
d="M1339 1526q96 0 96 -140h5q0 -90 -101 -120l-864 -460v-10q135 -75 1162 -576q24 -22 24 -72q-31 -153 -115 -153l-240 119q-1038 509 -1052 509l5 -513v-39q0 -91 -91 -91h-10q-59 0 -81 62l5 72v528q-34 62 -34 125q-48 104 -48 149q0 39 82 53l-5 177v202l-5 77
q0 52 96 72q64 0 86 -91l-4 -20l4 -393h10q1045 533 1070 533h5z" />
    <glyph glyph-name="L" unicode="L" horiz-adv-x="1200" 
d="M130 1592h14q82 -11 82 -81v-24l-5 -58l5 -58l19 -1089h648q225 0 225 -39q24 -3 29 -144q-14 -76 -101 -76h-571l-225 4q-38 -62 -87 -62q-58 0 -96 77q-67 44 -67 139q0 63 72 106l-5 19l-14 1109l-15 96q0 63 92 81z" />
    <glyph glyph-name="M" unicode="M" horiz-adv-x="1820" 
d="M1507 1522q64 0 77 -106q56 0 72 -120q0 -70 -67 -120l19 -1099q0 -52 -91 -77q-91 16 -91 91l4 67l-14 912l-5 5h-9l-336 -197q-28 -153 -125 -153l-87 33h-4l-63 -28q-54 0 -163 153q-328 173 -341 173h-5l20 -974q0 -77 -96 -82q-77 0 -82 96l-19 1056
q-101 113 -101 192q37 77 86 77q31 81 96 81q96 -15 96 -72l-4 -100q404 -213 552 -279q115 53 585 303l-5 57q0 111 101 111z" />
    <glyph glyph-name="N" unicode="N" horiz-adv-x="1450" 
d="M1162 1549q91 0 91 -106v-1181q0 -15 33 -57l10 -63v-24q0 -105 -101 -105q-50 0 -149 139q-399 400 -816 792h-14l5 -58q0 -543 19 -854q0 -60 -96 -72q-91 15 -91 86v63l5 38l-5 43q-6 956 -24 956q-24 0 -29 139q11 125 62 125q149 0 149 -77q0 -91 39 -101
q804 -795 816 -797h9v922l-14 125q0 55 101 67z" />
    <glyph glyph-name="O" unicode="O" horiz-adv-x="1700" 
d="M1037 1463q308 0 499 -249q110 -168 110 -331q0 -408 -604 -773q-286 -125 -485 -125q-309 0 -485 298q-65 141 -72 288q0 289 288 580q210 200 557 288zM187 609v-53q0 -187 235 -283q63 -29 168 -29h39q248 0 662 288q163 149 163 288v58q0 153 -134 230
q-133 96 -312 96q-331 0 -691 -312q-130 -155 -130 -283z" />
    <glyph glyph-name="P" unicode="P" horiz-adv-x="1800" 
d="M1046 1569q294 0 552 -288q39 -66 39 -115q0 -130 -245 -331q-102 -82 -278 -82l-58 5q-215 0 -792 53v-5l14 -739q0 -57 -91 -77h-5q-61 0 -86 77l5 77l-10 643q0 56 -43 101l-5 43q0 139 43 139l-4 58v96l-68 110q-14 23 -14 62q0 43 77 82q0 67 96 82q37 0 81 -63h5
q425 53 787 72zM259 1233v-182q579 -53 855 -53q243 0 316 125v33q0 100 -158 135l-322 9q-198 0 -691 -67z" />
    <glyph glyph-name="Q" unicode="Q" horiz-adv-x="1800" 
d="M1027 1458q278 0 471 -220q129 -179 129 -360q0 -262 -269 -533v-5q240 -124 240 -154l5 -19q0 -144 -91 -144q-19 0 -355 159h-5q-265 -168 -394 -168q-54 -19 -206 -34q-300 0 -475 288q-77 167 -77 298q0 240 211 504q196 247 615 360q75 19 201 28zM182 580
q0 -250 293 -331l96 -10h58q92 0 254 63v9l-91 43q-53 78 -53 154v19q0 64 91 77q37 0 327 -158q283 167 283 393v5q0 179 -110 240q-138 115 -336 115q-331 0 -682 -317q-130 -145 -130 -302z" />
    <glyph glyph-name="R" unicode="R" horiz-adv-x="1800" 
d="M1037 1519q279 0 489 -211q72 -90 72 -206q0 -275 -417 -389l-48 -5l-360 24v-5l816 -427q24 -26 38 -115q-16 -110 -96 -110q-21 0 -1233 609h-15v-5l5 -667q0 -53 -82 -67q-74 0 -100 62l4 144v293l-4 336q-96 28 -96 144l-5 43q0 80 101 96v101q-53 29 -72 101
q-34 50 -34 91q0 64 115 82q0 28 77 53l77 -34q555 62 768 62zM283 1188v-149q0 -15 466 -72q240 -24 369 -24q227 0 284 149l9 39q-60 139 -273 139q-273 0 -855 -82z" />
    <glyph glyph-name="S" unicode="S" horiz-adv-x="1400" 
d="M595 1497q163 0 341 -187q34 -50 34 -87q0 -72 -96 -129l-29 -10q-72 0 -87 96l15 43q-80 43 -173 43q-180 0 -370 -230q-24 -57 -24 -106v-19q0 -27 77 -33l499 76l82 5h29q250 0 331 -254l14 -91q0 -195 -206 -432q-213 -202 -470 -202q-239 0 -456 206
q-106 141 -106 192q19 92 82 92q50 0 134 -111q193 -144 413 -144h5q184 0 393 283q24 39 24 68v28q0 54 -77 106h-62q-97 0 -600 -82q-169 0 -254 173q-29 72 -29 144q0 329 470 543z" />
    <glyph glyph-name="T" unicode="T" horiz-adv-x="1251" 
d="M518 1521q76 0 87 -91h297q131 0 173 -163v-10q0 -54 -86 -72h-379q6 -1123 14 -1123q0 -59 -91 -77h-5q-91 21 -91 82l9 67l-9 955l-5 96h-158q-226 0 -226 29q-48 62 -48 129q0 79 106 87h326q14 91 86 91z" />
    <glyph glyph-name="U" unicode="U" horiz-adv-x="1230" 
d="M926 1525q92 -10 92 -86l-5 -86l19 -840q58 -33 58 -82v-29q0 -86 -53 -149v-9l5 -135q0 -65 -96 -81q-72 0 -82 105v20h-10q-285 -178 -408 -178h-38q-262 0 -341 259q-53 175 -53 250l-4 753l-10 77q0 82 101 82q60 0 86 -77l-5 -34l5 -576v-120q0 -296 139 -355l29 -5
h48q47 0 456 216l-5 72q-9 817 -24 927q0 66 96 81z" />
    <glyph glyph-name="V" unicode="V" horiz-adv-x="1730" 
d="M1440 1338q110 -32 110 -153q0 -41 -129 -188l-643 -806v-14q52 -89 52 -116q-13 -86 -86 -86q-50 0 -91 62h-5l-53 -24q-85 0 -105 164q0 30 43 86q-171 348 -499 902q-34 31 -34 72q0 61 110 87q61 0 96 -120q276 -463 442 -783h5q12 0 465 581q234 299 279 331z" />
    <glyph glyph-name="W" unicode="W" horiz-adv-x="1600" 
d="M1296 1521q86 -13 86 -77h5l-5 -33v-39l24 -691q0 -501 -331 -653q-89 -33 -144 -33h-24q-128 0 -240 158h-5q-128 -153 -249 -153l-39 -10q-195 0 -321 278q-43 67 -43 696l-10 375q26 72 96 72q86 -14 86 -82h5l-5 -24l10 -753q0 -211 154 -298h43q132 0 168 216l9 514
l-14 388q42 68 96 68q86 -20 86 -68l5 -873q19 -41 29 -120q56 -120 125 -120h9q176 0 288 259q29 80 29 178q0 384 -19 744q0 71 96 81z" />
    <glyph glyph-name="X" unicode="X" horiz-adv-x="1650" 
d="M106 1420q24 0 177 -159l519 -465l600 475l28 5q69 0 140 -125v-15q0 -62 -154 -163l-427 -345q126 -136 504 -471q27 0 43 -67q-28 -96 -96 -96q-34 0 -144 115q-436 403 -451 403l-682 -537l-43 -5q-72 0 -91 149q0 72 96 129l533 432v10l-653 600l-5 34v4q0 80 101 92
h5z" />
    <glyph glyph-name="Y" unicode="Y" horiz-adv-x="1600" 
d="M1411 1391q69 0 87 -91v-5q0 -69 -168 -129q-470 -238 -476 -250l5 -19q-9 -37 -38 -77l9 -758q-28 -82 -91 -82q-91 11 -91 86v456l-5 288h-9q-65 -43 -92 -43q-76 30 -76 101l19 62q-322 161 -456 207q-29 29 -29 62q0 85 86 159q29 3 29 9q18 0 653 -288h14l620 312h9
z" />
    <glyph glyph-name="Z" unicode="Z" horiz-adv-x="1251" 
d="M1022 1543q44 0 87 -53q71 0 86 -91q-69 -163 -173 -163h-33q-33 -33 -475 -740q-118 -172 -125 -206l590 -10l101 5q63 0 91 -91q-35 -163 -120 -163h-830q-49 -91 -72 -91q0 -10 -34 -10h-5q-91 21 -91 82l5 38q-24 45 -24 72q70 173 149 173h29q257 387 595 936v5
h-547q-116 0 -116 139v9q0 101 72 101v5l58 -5h163l538 5q31 53 81 53z" />
    <glyph glyph-name="a" unicode="a" horiz-adv-x="1720" 
d="M955 1543q80 0 125 -140v-14l-14 -77q297 -725 331 -782q139 -25 139 -130q0 -39 -48 -105q34 -137 86 -221v-15q-20 -100 -100 -100q-100 0 -116 134l-72 168l-249 5h-240l-456 -10q-24 -2 -154 -216q-42 -43 -81 -43q-82 0 -101 106h-5q0 25 110 177l5 5v5
q-25 35 -33 86q35 144 144 144h38q547 804 547 850l-5 24q0 80 116 139zM504 530v-10h643l24 5v10l-249 614h-10q-58 -71 -408 -619z" />
    <glyph glyph-name="b" unicode="b" 
d="M911 1480q425 0 523 -259l10 -67q0 -77 -86 -231v-5q0 -23 110 -67q163 -84 163 -249l5 -44q0 -212 -355 -451q-125 -86 -903 -86h-134v-5q0 -100 -77 -100q-61 0 -81 95q-36 0 -48 101v24q0 53 48 144v5l-5 393h-15l-4 -4q-62 21 -62 115q0 107 76 168v5l-5 211
q-91 83 -91 144q0 67 101 77q21 38 72 38l57 -29q397 58 701 77zM225 1120v-154h163q762 0 826 106q26 0 43 77q0 72 -245 72h-96q-329 0 -672 -67q-19 -14 -19 -34zM230 688l4 -216v-110l5 -82h5q816 0 898 48q331 109 331 240q0 206 -442 206q-706 -54 -801 -86z" />
    <glyph glyph-name="c" unicode="c" horiz-adv-x="1730" 
d="M898 1469q182 0 504 -120q33 -32 33 -87q0 -110 -101 -134q-247 62 -432 62h-4q-370 0 -624 -307q-82 -127 -82 -278q0 -351 403 -351h29q385 0 744 245q48 48 96 48q110 -15 110 -101v-14q0 -116 -148 -187q-164 -119 -428 -197q-218 -48 -331 -48q-502 0 -619 384
q-48 183 -48 274q0 319 374 619q323 192 524 192z" />
    <glyph glyph-name="d" unicode="d" 
d="M192 1522q48 0 91 -77h5q454 72 586 72q292 0 580 -187q131 -92 188 -327l19 -149q0 -438 -667 -729q-193 -82 -677 -82h-43q-40 -43 -77 -43t-91 48q-63 35 -63 120q0 67 63 134l-5 879q-96 101 -96 139v10h-5q0 69 96 86q21 106 96 106zM278 710l5 -393h72
q504 0 629 86q372 136 470 351q20 47 20 81v67q0 236 -260 303q-173 43 -340 43q-277 0 -596 -91v-447z" />
    <glyph glyph-name="e" unicode="e" horiz-adv-x="1420" 
d="M182 1533q19 0 87 -29h451l437 -5q64 0 110 -144l5 -33q-25 -87 -130 -87l-878 -14l5 -130v-153h744q113 0 144 -96l9 -58q0 -105 -124 -105h-768v-394h4l888 -5q61 0 106 -153q0 -74 -110 -96l-869 -15q-31 -91 -101 -91q-78 0 -106 130q-81 123 -81 144q0 64 96 91
l-5 33v375q-96 87 -96 153q0 69 91 87v293q-78 79 -91 177q0 77 106 96q57 29 76 29z" />
    <glyph glyph-name="f" unicode="f" horiz-adv-x="1251" 
d="M192 1512q65 0 101 -86l677 9q75 0 86 -91h5l-5 -24v-62q0 -116 -134 -116l-591 -9l-53 -5v-264h672q120 0 120 -91h5q0 -173 -101 -173l-643 -14l-48 -5v-149l-5 -307l5 -58q0 -53 -81 -67h-10q-72 0 -82 86l-4 490q-101 0 -101 96q0 44 101 187l-5 187v53q0 28 -67 48
q-34 32 -34 67v10q0 30 62 115q0 121 111 173h19z" />
    <glyph glyph-name="g" unicode="g" horiz-adv-x="1820" 
d="M1142 1464q120 0 120 -168q0 -91 -182 -91q-312 -43 -446 -96q-178 -77 -408 -389q-34 -76 -34 -154q0 -205 216 -264q132 -33 293 -33q299 0 619 129l-5 216h-5q-42 0 -379 -62q-61 0 -96 82q77 216 183 216q288 32 288 43q0 78 91 86q52 0 86 -67h34q115 0 115 -130
v-38q0 -76 -144 -106l5 -105v-77h5l62 5q82 0 82 -135v-28q0 -99 -96 -125q-39 -9 -39 -19v-58q-5 -96 -81 -96h-10q-77 0 -86 106l-365 -82q-115 -14 -197 -14h-101q-412 0 -513 177q-154 216 -154 485q0 367 547 686q255 106 595 106z" />
    <glyph glyph-name="h" unicode="h" horiz-adv-x="1540" 
d="M1210 1486q91 -16 91 -81l-5 -82l5 -504v-129q72 -47 72 -82q-15 -144 -72 -144v-144l5 -278q0 -69 -92 -81q-86 0 -86 95l5 77l-5 139v163l-845 -5l-14 -4v-293l5 -5q-14 -96 -87 -96h-9q-82 9 -82 77h-5l5 33v68l-5 216q-91 16 -91 91q0 100 91 168l-5 216v101l-4 379
q13 67 96 67q64 0 86 -62l-5 -63l5 -629h5l547 -4h307l5 345v192l-5 187q0 59 87 72z" />
    <glyph glyph-name="i" unicode="i" horiz-adv-x="430" 
d="M86 1478h5q96 -16 96 -86l-14 -139v-941l5 -235q0 -61 -87 -77q-86 11 -86 82h-5l5 81v1027l-5 221q26 67 86 67z" />
    <glyph glyph-name="j" unicode="j" horiz-adv-x="1100" 
d="M826 1531q60 0 86 -77l-5 -28l19 -668q0 -363 -91 -436q-87 -118 -211 -202q-169 -106 -322 -120q-242 0 -297 408l-5 58q24 76 86 76q87 0 101 -172q36 -106 120 -106q284 0 437 331l5 72v48q0 322 -19 749q22 67 96 67z" />
    <glyph glyph-name="k" unicode="k" 
d="M1339 1526q96 0 96 -140h5q0 -90 -101 -120l-864 -460v-10q135 -75 1162 -576q24 -22 24 -72q-31 -153 -115 -153l-240 119q-1038 509 -1052 509l5 -513v-39q0 -91 -91 -91h-10q-59 0 -81 62l5 72v528q-34 62 -34 125q-48 104 -48 149q0 39 82 53l-5 177v202l-5 77
q0 52 96 72q64 0 86 -91l-4 -20l4 -393h10q1045 533 1070 533h5z" />
    <glyph glyph-name="l" unicode="l" horiz-adv-x="1200" 
d="M130 1592h14q82 -11 82 -81v-24l-5 -58l5 -58l19 -1089h648q225 0 225 -39q24 -3 29 -144q-14 -76 -101 -76h-571l-225 4q-38 -62 -87 -62q-58 0 -96 77q-67 44 -67 139q0 63 72 106l-5 19l-14 1109l-15 96q0 63 92 81z" />
    <glyph glyph-name="m" unicode="m" horiz-adv-x="1820" 
d="M1507 1522q64 0 77 -106q56 0 72 -120q0 -70 -67 -120l19 -1099q0 -52 -91 -77q-91 16 -91 91l4 67l-14 912l-5 5h-9l-336 -197q-28 -153 -125 -153l-87 33h-4l-63 -28q-54 0 -163 153q-328 173 -341 173h-5l20 -974q0 -77 -96 -82q-77 0 -82 96l-19 1056
q-101 113 -101 192q37 77 86 77q31 81 96 81q96 -15 96 -72l-4 -100q404 -213 552 -279q115 53 585 303l-5 57q0 111 101 111z" />
    <glyph glyph-name="n" unicode="n" horiz-adv-x="1450" 
d="M1162 1549q91 0 91 -106v-1181q0 -15 33 -57l10 -63v-24q0 -105 -101 -105q-50 0 -149 139q-399 400 -816 792h-14l5 -58q0 -543 19 -854q0 -60 -96 -72q-91 15 -91 86v63l5 38l-5 43q-6 956 -24 956q-24 0 -29 139q11 125 62 125q149 0 149 -77q0 -91 39 -101
q804 -795 816 -797h9v922l-14 125q0 55 101 67z" />
    <glyph glyph-name="o" unicode="o" horiz-adv-x="1700" 
d="M1037 1463q308 0 499 -249q110 -168 110 -331q0 -408 -604 -773q-286 -125 -485 -125q-309 0 -485 298q-65 141 -72 288q0 289 288 580q210 200 557 288zM187 609v-53q0 -187 235 -283q63 -29 168 -29h39q248 0 662 288q163 149 163 288v58q0 153 -134 230
q-133 96 -312 96q-331 0 -691 -312q-130 -155 -130 -283z" />
    <glyph glyph-name="p" unicode="p" horiz-adv-x="1800" 
d="M1046 1569q294 0 552 -288q39 -66 39 -115q0 -130 -245 -331q-102 -82 -278 -82l-58 5q-215 0 -792 53v-5l14 -739q0 -57 -91 -77h-5q-61 0 -86 77l5 77l-10 643q0 56 -43 101l-5 43q0 139 43 139l-4 58v96l-68 110q-14 23 -14 62q0 43 77 82q0 67 96 82q37 0 81 -63h5
q425 53 787 72zM259 1233v-182q579 -53 855 -53q243 0 316 125v33q0 100 -158 135l-322 9q-198 0 -691 -67z" />
    <glyph glyph-name="q" unicode="q" horiz-adv-x="1800" 
d="M1027 1458q278 0 471 -220q129 -179 129 -360q0 -262 -269 -533v-5q240 -124 240 -154l5 -19q0 -144 -91 -144q-19 0 -355 159h-5q-265 -168 -394 -168q-54 -19 -206 -34q-300 0 -475 288q-77 167 -77 298q0 240 211 504q196 247 615 360q75 19 201 28zM182 580
q0 -250 293 -331l96 -10h58q92 0 254 63v9l-91 43q-53 78 -53 154v19q0 64 91 77q37 0 327 -158q283 167 283 393v5q0 179 -110 240q-138 115 -336 115q-331 0 -682 -317q-130 -145 -130 -302z" />
    <glyph glyph-name="r" unicode="r" horiz-adv-x="1800" 
d="M1037 1519q279 0 489 -211q72 -90 72 -206q0 -275 -417 -389l-48 -5l-360 24v-5l816 -427q24 -26 38 -115q-16 -110 -96 -110q-21 0 -1233 609h-15v-5l5 -667q0 -53 -82 -67q-74 0 -100 62l4 144v293l-4 336q-96 28 -96 144l-5 43q0 80 101 96v101q-53 29 -72 101
q-34 50 -34 91q0 64 115 82q0 28 77 53l77 -34q555 62 768 62zM283 1188v-149q0 -15 466 -72q240 -24 369 -24q227 0 284 149l9 39q-60 139 -273 139q-273 0 -855 -82z" />
    <glyph glyph-name="s" unicode="s" horiz-adv-x="1400" 
d="M595 1497q163 0 341 -187q34 -50 34 -87q0 -72 -96 -129l-29 -10q-72 0 -87 96l15 43q-80 43 -173 43q-180 0 -370 -230q-24 -57 -24 -106v-19q0 -27 77 -33l499 76l82 5h29q250 0 331 -254l14 -91q0 -195 -206 -432q-213 -202 -470 -202q-239 0 -456 206
q-106 141 -106 192q19 92 82 92q50 0 134 -111q193 -144 413 -144h5q184 0 393 283q24 39 24 68v28q0 54 -77 106h-62q-97 0 -600 -82q-169 0 -254 173q-29 72 -29 144q0 329 470 543z" />
    <glyph glyph-name="t" unicode="t" horiz-adv-x="1251" 
d="M518 1521q76 0 87 -91h297q131 0 173 -163v-10q0 -54 -86 -72h-379q6 -1123 14 -1123q0 -59 -91 -77h-5q-91 21 -91 82l9 67l-9 955l-5 96h-158q-226 0 -226 29q-48 62 -48 129q0 79 106 87h326q14 91 86 91z" />
    <glyph glyph-name="u" unicode="u" horiz-adv-x="1230" 
d="M926 1525q92 -10 92 -86l-5 -86l19 -840q58 -33 58 -82v-29q0 -86 -53 -149v-9l5 -135q0 -65 -96 -81q-72 0 -82 105v20h-10q-285 -178 -408 -178h-38q-262 0 -341 259q-53 175 -53 250l-4 753l-10 77q0 82 101 82q60 0 86 -77l-5 -34l5 -576v-120q0 -296 139 -355l29 -5
h48q47 0 456 216l-5 72q-9 817 -24 927q0 66 96 81z" />
    <glyph glyph-name="v" unicode="v" horiz-adv-x="1730" 
d="M1440 1338q110 -32 110 -153q0 -41 -129 -188l-643 -806v-14q52 -89 52 -116q-13 -86 -86 -86q-50 0 -91 62h-5l-53 -24q-85 0 -105 164q0 30 43 86q-171 348 -499 902q-34 31 -34 72q0 61 110 87q61 0 96 -120q276 -463 442 -783h5q12 0 465 581q234 299 279 331z" />
    <glyph glyph-name="w" unicode="w" horiz-adv-x="1600" 
d="M1296 1521q86 -13 86 -77h5l-5 -33v-39l24 -691q0 -501 -331 -653q-89 -33 -144 -33h-24q-128 0 -240 158h-5q-128 -153 -249 -153l-39 -10q-195 0 -321 278q-43 67 -43 696l-10 375q26 72 96 72q86 -14 86 -82h5l-5 -24l10 -753q0 -211 154 -298h43q132 0 168 216l9 514
l-14 388q42 68 96 68q86 -20 86 -68l5 -873q19 -41 29 -120q56 -120 125 -120h9q176 0 288 259q29 80 29 178q0 384 -19 744q0 71 96 81z" />
    <glyph glyph-name="x" unicode="x" horiz-adv-x="1650" 
d="M106 1420q24 0 177 -159l519 -465l600 475l28 5q69 0 140 -125v-15q0 -62 -154 -163l-427 -345q126 -136 504 -471q27 0 43 -67q-28 -96 -96 -96q-34 0 -144 115q-436 403 -451 403l-682 -537l-43 -5q-72 0 -91 149q0 72 96 129l533 432v10l-653 600l-5 34v4q0 80 101 92
h5z" />
    <glyph glyph-name="y" unicode="y" horiz-adv-x="1600" 
d="M1411 1391q69 0 87 -91v-5q0 -69 -168 -129q-470 -238 -476 -250l5 -19q-9 -37 -38 -77l9 -758q-28 -82 -91 -82q-91 11 -91 86v456l-5 288h-9q-65 -43 -92 -43q-76 30 -76 101l19 62q-322 161 -456 207q-29 29 -29 62q0 85 86 159q29 3 29 9q18 0 653 -288h14l620 312h9
z" />
    <glyph glyph-name="z" unicode="z" horiz-adv-x="1251" 
d="M1022 1543q44 0 87 -53q71 0 86 -91q-69 -163 -173 -163h-33q-33 -33 -475 -740q-118 -172 -125 -206l590 -10l101 5q63 0 91 -91q-35 -163 -120 -163h-830q-49 -91 -72 -91q0 -10 -34 -10h-5q-91 21 -91 82l5 38q-24 45 -24 72q70 173 149 173h29q257 387 595 936v5
h-547q-116 0 -116 139v9q0 101 72 101v5l58 -5h163l538 5q31 53 81 53z" />
  </font>
</defs>
</svg>
